# WaveFront *.obj file (generated by CINEMA 4D)

mtllib ./cube.mtl

v -100 -100 100
v -100 100 100
v 100 -100 100
v 100 100 100
v 100 -100 -100
v 100 100 -100
v -100 -100 -100
v -100 100 -100
# 8 vertices

vn 0 -1 0
vn 0 0 0
vn 1 0 0
vn 0 0 -1
vn 0 0 -1
vn -1 0 0
vn 0 1 0
# 7 normals

vt 0 0 0
vt 0 1 0
vt 1 1 0
vt 1 0 0
# 4 texture coordinates

o Cube
usemtl default
f 3/3/1 1/2/1 7/1/1
f 6/3/3 4/2/3 3/1/3
f 8/3/4 6/2/5 5/1/4
f 2/3/6 8/2/6 7/1/6
f 6/3/7 8/2/7 2/1/7
f 5/4/3 6/3/3 3/1/3
f 5/4/1 3/3/1 7/1/1
f 7/4/4 8/3/4 5/1/4
f 1/4/6 2/3/6 7/1/6
f 4/4/7 6/3/7 2/1/7

