# WaveFront *.obj file (generated by CINEMA 4D)

mtllib ./plane.mtl

v 0 0 0
v 100 0 0
v 50 0 0
v 30.90169906616211 0 -95.10565185546875
v 15.45084953308105 0 -47.55282592773438
v -80.90170288085938 0 -58.77852630615234
v -40.45085144042969 0 -29.38926315307617
v -80.90170288085938 0 58.77852630615234
v -40.45085144042969 0 29.38926315307617
v 30.90169906616211 0 95.10565185546875
v 15.45084953308105 0 47.55282592773438
v -25.34441184997559 0 76.83018493652344
v 63.96273803710938 0 49.60103607177734
v 67.90097808837891 0 -44.18051147460938
v -21.14672660827637 0 -78.194091796875
v -80.90170288085938 0 -1.96972763538361
# 16 vertices

vn 0 1 0
vn 0 0 0
# 2 normals

vt 1 0.5 0
vt 0.75 0.5 0
vt 0.83950489759445 0.72090256214142 0
vt 0.5 0.5 0
vt 0.57725417613983 0.73776412010193 0
vt 0.65450847148895 0.97552824020386 0
vt 0.3942663371563 0.89097046852112 0
vt 0.29774576425552 0.64694631099701 0
vt 0.09549149870872 0.79389262199402 0
vt 0.09549149870872 0.50984865427017 0
vt 0.29774576425552 0.35305368900299 0
vt 0.57725417613983 0.26223587989807 0
vt 0.65450847148895 0.02447175979614 0
vt 0.37327793240547 0.11584913730621 0
vt 0.81981366872787 0.25199484825134 0
vt 0.09549149870872 0.20610737800598 0
# 16 texture coordinates

o Disc
usemtl default
f 14/3/1 3/2/1 2/1/1
f 5/5/1 1/4/1 3/2/1
f 15/7/1 5/5/1 4/6/1
f 7/8/1 1/4/1 5/5/1
f 16/10/1 7/8/1 6/9/1
f 9/11/1 1/4/1 7/8/1
f 12/14/1 10/13/1 11/12/1
f 11/12/1 1/4/1 9/11/1
f 13/15/1 11/12/1 10/13/1
f 3/2/1 1/4/1 11/12/1
f 11/12/1 9/11/1 12/14/1
f 9/11/1 8/16/1 12/14/1
f 13/15/1 2/1/1 3/2/1
f 3/2/1 11/12/1 13/15/1
f 14/3/1 4/6/1 5/5/1
f 5/5/1 3/2/1 14/3/1
f 15/7/1 6/9/1 7/8/1
f 7/8/1 5/5/1 15/7/1
f 16/10/1 8/16/1 9/11/1
f 9/11/1 7/8/1 16/10/1

