# WaveFront *.obj file (generated by CINEMA 4D)

mtllib ./test.mtl

v -73.65054321289062 -1.28645491600037 33.68535995483398
v -15.50620555877686 -1.28645491600037 -79.26216888427734
v 47.30731964111328 3.54796099662781 62.57797241210938
v -82.16460418701172 -1.28645491600037 -1.95176529884338
v -75.00160217285156 -1.28645491600037 -26.9517650604248
v -57.70950698852539 -1.28645491600037 -55.76968383789062
v 13.74063396453857 -1.28645491600037 -78.23696136474609
v 69.04092407226562 -1.28645491600037 -40.16022109985352
v 79.43868255615234 -1.28645491600037 -11.19128513336182
v -40.50620651245117 -1.28645491600037 65.12602996826172
v -16.71764373779297 -3.52658891677856 79.83464050292969
v 9.49379444122314 -1.28645491600037 78.83449554443359
v -33.43552398681641 -1.28645491600037 -0.32469072937965
v -15.50620555877686 -1.28645491600037 -26.9517650604248
v 0.58188098669052 -1.54713642597198 0.18183392286301
# 15 vertices

vn 0 1 0
vn 0 1 0
vn 0.02933436073363 0.99956464767456 0.00316900899634
vn 0 0 0
vn 0.01713948883116 0.99982970952988 0.00684165488929
vn 0.00343565410003 0.99989449977875 0.01411500014365
vn 0.00149341614451 0.99999618530273 0.00231686676852
vn -0.0125991217792 0.99989265203476 0.0074835778214
vn -0.09221172332764 0.99460971355438 -0.0474181547761
vn -0.00058981165057 0.99999433755875 0.00330690736882
vn -0.06486607342958 0.99668037891388 -0.04919984564185
vn -0.18653747439384 0.97169923782349 -0.1449289470911
# 12 normals

vt 0 0 0
vt 0.125 0.25 0
vt 0.25 0 0
vt 0 1 0
vt 0.25 0.5 0
vt 0.375 0.25 0
vt 0.5 0 0
vt 0.375 0.75 0
vt 0.5 0.5 0
vt 0.625 0.25 0
vt 0.75 0 0
vt 0.5 1 0
vt 0.625 0.75 0
vt 0.75 0.5 0
vt 0.875 0.25 0
vt 1 0 0
# 16 texture coordinates

o Polygon
usemtl default
f 10/3/3 4/2/2 1/1/1
f 13/6/5 5/5/2 4/2/2
f 4/2/2 10/3/3 13/6/5
f 11/7/6 13/6/5 10/3/3
f 14/9/7 6/8/2 5/5/2
f 5/5/2 13/6/5 14/9/7
f 15/10/8 14/9/7 13/6/5
f 13/6/5 11/7/6 15/10/8
f 12/11/9 15/10/8 11/7/6
f 7/13/2 2/12/2 6/8/2
f 6/8/2 14/9/7 7/13/2
f 8/14/10 7/13/2 14/9/7
f 14/9/7 15/10/8 8/14/10
f 9/15/11 8/14/10 15/10/8
f 15/10/8 12/11/9 9/15/11
f 3/16/12 9/15/11 12/11/9

